<?xml version="1.0" encoding="utf-8"?>
<!-- Generator: Adobe Illustrator 21.1.0, SVG Export Plug-In . SVG Version: 6.00 Build 0)  -->
<svg version="1.1" id="Слой_1" xmlns="http://www.w3.org/2000/svg" xmlns:xlink="http://www.w3.org/1999/xlink" x="0px" y="0px"
	 viewBox="0 0 1000 1000" style="enable-background:new 0 0 1000 1000;" xml:space="preserve">
<style type="text/css">
	.st0{fill:#336AB1;}
</style>
<g>
	<g>
		<g>
			<path class="st0" d="M775.8,176.1c-12.4-9.5-30.1-7.2-39.6,5.2s-7.2,30.1,5.2,39.6c99,75.9,155.8,190.8,155.8,315.3
				c0,219-178.2,397.2-397.2,397.2S102.8,755.2,102.8,536.2c0-211.3,166.7-384.6,375.4-396.1v43.1c0,10,5.3,19.3,13.9,24.3
				c4.4,2.6,9.4,3.9,14.3,3.9c4.7,0,9.4-1.2,13.7-3.5L651,135.4c9-5,14.6-14.5,14.6-24.7c0-10.3-5.6-19.7-14.6-24.7L520.1,13.6
				c-8.7-4.9-19.4-4.7-28,0.4s-13.9,14.3-13.9,24.3v44.9C238.3,94.7,46.3,293.9,46.3,536.3C46.3,786.5,249.8,990,500,990
				s453.7-203.5,453.7-453.7C953.7,394.1,888.9,262.8,775.8,176.1z M534.7,86.3l44.4,24.6l-44.4,24.6V86.3z"/>
			<path class="st0" d="M310.8,553.7c-39.9,28.4-65.2,55.4-75.9,80.9c-8.5,17.4-13.9,36.1-16.3,56.3c-1.2,10.3,7.1,18.8,17.5,18.8
				h224c10.4,0,18.8-8.4,18.8-18.8v-28.5c0-10.4-8.4-18.8-18.8-18.8H331c-10.4,0-15.8-5.3-10.9-11.1c2.9-3.5,6.1-6.7,9.6-9.7
				c6.9-6,19.8-15.6,38.6-29l30.1-21.3c25.3-17.9,43.6-34.2,54.7-48.8c16.9-22,25.3-47.1,25.3-75.4c0-36.9-12-66.5-35.9-88.9
				s-56.1-33.6-96.5-33.6c-51.2,0-86.8,19.1-106.8,57.2c-8.4,16-13.9,36-16.4,60c-1.1,10.3,7.1,18.8,17.5,18.8h35.3
				c10.4,0,19-8.5,20.3-18.8c1.4-12.1,3.8-21.4,7-28.1c8.3-17,23.8-25.6,46.6-25.6c16.7,0,29.5,5.4,38.5,16.1s13.4,24.1,13.4,40.3
				c0,19.9-7.8,38.1-23.5,54.8C367.8,511.2,345.4,529,310.8,553.7z"/>
			<path class="st0" d="M720.7,330H674c-10.4,0-23.2,7.2-28.6,16.1l-121,199.7c-5.4,8.9-9.8,24.5-9.8,35v27.9
				c0,10.4,8.4,18.8,18.8,18.8H647c10.4,0,18.8,8.4,18.8,18.8v44.5c0,10.4,8.5,18.8,18.8,18.8h35.8c10.4,0,18.8-8.4,18.8-18.8v-44.5
				c0-10.4,8.4-18.8,18.8-18.8h5.6c10.4,0,18.8-8.4,18.8-18.8v-21.1c0-10.4-8.5-18.8-18.8-18.8h-5.5c-10.4,0-18.8-8.4-18.8-18.8
				V348.9C739.6,338.5,731.1,330,720.7,330z M666,549.9c0,10.4-8.4,18.8-18.8,18.8h-57.7c-10.4,0-14.6-7.3-9.4-16.3l76.5-132
				c5.2-9,9.5-7.9,9.5,2.5L666,549.9L666,549.9z"/>
		</g>
	</g>
</g>
</svg>
