<?xml version="1.0" encoding="utf-8"?>
<!-- Generator: Adobe Illustrator 21.1.0, SVG Export Plug-In . SVG Version: 6.00 Build 0)  -->
<svg version="1.1" id="Layer_1" xmlns="http://www.w3.org/2000/svg" xmlns:xlink="http://www.w3.org/1999/xlink" x="0px" y="0px"
	 viewBox="0 0 511.2 511.2" style="enable-background:new 0 0 511.2 511.2;" xml:space="preserve">
<style type="text/css">
	.st0{fill:#336AB1;}
</style>
<g transform="translate(1 1)">
	<g>
		<g>
			<path class="st0" d="M101.4,374.1c-9.4,0-17.1,7.7-17.1,17.1s7.7,17.1,17.1,17.1s17.1-7.7,17.1-17.1S110.8,374.1,101.4,374.1z"/>
			<path class="st0" d="M408.6,374.1c-9.4,0-17.1,7.7-17.1,17.1s7.7,17.1,17.1,17.1s17.1-7.7,17.1-17.1S418,374.1,408.6,374.1z"/>
			<path class="st0" d="M510.1,372.4V293v-44.4c0-14.5-11.9-27.3-27.3-27.3H447l-0.9-0.9l-6.8-8.5l-49.5-62.3
				c-7.7-9.4-17.9-14.5-29.9-14.5h-28.2h-34.1V91.6c0-18.8-14.5-33.3-32.4-33.3h-233C13.5,58.3-1,72.8-1,91.6v188.6v17.1v76.8
				c0,14.5,11.1,25.6,25.6,25.6h17.7c4.1,29.2,28.8,51.2,59.1,51.2s55.1-22,59.1-51.2h120.1h17.1h51.8c4.1,29.2,28.8,51.2,59.1,51.2
				s55.1-22,59.1-51.2h15.1C498.2,399.7,511,386.9,510.1,372.4z M348.9,152.2h11.9c6,0,11.9,2.6,16.2,7.7l28.2,35h-1.7h-48.6
				c-3.4,0-6-2.6-6-6L348.9,152.2L348.9,152.2z M16.1,91.6c0-9.4,6.8-16.2,16.2-16.2h232.1c9.4,0,16.2,7.7,16.2,16.2v43.5v145.1
				H16.1V91.6z M101.4,433.8c-23.9,0-42.7-18.8-42.7-42.7c0-23.9,18.8-42.7,42.7-42.7c23.9,0,42.7,18.8,42.7,42.7
				C144.1,415,125.3,433.8,101.4,433.8z M280.6,382.6H160.5c-3.8-27.3-25.8-48.4-53.5-50.9c-0.2,0-0.4,0-0.6,0
				c-0.7-0.1-1.4-0.1-2.1-0.1c-1,0-1.9-0.1-2.9-0.1s-1.9,0-2.9,0.1c-0.7,0-1.4,0.1-2.1,0.1c-0.2,0-0.4,0-0.6,0
				c-27.8,2.5-49.7,23.6-53.5,50.9H24.6c-5.1,0-8.5-3.4-8.5-8.5v-76.8h264.5V382.6z M408.6,433.8c-23.9,0-42.7-18.8-42.7-42.7
				c0-23.9,18.8-42.7,42.7-42.7c23.9,0,42.7,18.8,42.7,42.7C451.3,415,432.5,433.8,408.6,433.8z M493.1,280.2H357.4
				c-5.1,0-8.5,3.4-8.5,8.5s3.4,8.5,8.5,8.5h135.7v74.2c0,6-4.3,11.1-10.2,11.1h-15.1c-4.1-29.2-28.8-51.2-59.1-51.2
				c-30.7,0-55.5,22.5-59.2,52.1h-51.7v-86.2v-17.1V153h34.1v35.8c0,12.8,10.2,23,23,23h62.3l15.4,19.6c3.4,4.3,8.5,6.8,14.5,6.8
				h35.8c5.1,0,10.2,4.3,10.2,10.2L493.1,280.2L493.1,280.2z"/>
			<path class="st0" d="M189.3,152.2h-19.6v-19.6c0-8.5-6-14.5-13.7-14.5h-23c-8.5,0-14.5,6-14.5,14.5v18.8H98.8
				c-8.5,0-14.5,6.8-14.5,14.5v23c0,8.5,6,14.5,13.7,14.5h19.6V223c0,8.5,6.8,14.5,14.5,14.5h23c8.5,0,14.5-6,14.5-13.7v-19.6h19.6
				c8.5,0,14.5-6.8,14.5-14.5v-23C203.8,158.2,197,152.2,189.3,152.2z M186.7,186.3h-19.6c-8.5,0-14.5,6.8-14.5,14.5v19.6h-17.1
				v-19.6c0-8.5-6.8-14.5-14.5-14.5h-19.6v-17.1H121c8.5,0,14.5-6.8,14.5-14.5v-19.6h17.1v19.6c0,8.5,6.8,14.5,14.5,14.5h19.6
				L186.7,186.3L186.7,186.3z"/>
		</g>
	</g>
</g>
</svg>
