<svg xmlns="http://www.w3.org/2000/svg" width="114.031" height="114" viewBox="0 0 114.031 114">
  <metadata><?xpacket begin="﻿" id="W5M0MpCehiHzreSzNTczkc9d"?>
<x:xmpmeta xmlns:x="adobe:ns:meta/" x:xmptk="Adobe XMP Core 5.6-c138 79.159824, 2016/09/14-01:09:01        ">
   <rdf:RDF xmlns:rdf="http://www.w3.org/1999/02/22-rdf-syntax-ns#">
      <rdf:Description rdf:about=""/>
   </rdf:RDF>
</x:xmpmeta>
                                                                                                    
                                                                                                    
                                                                                                    
                                                                                                    
                                                                                                    
                                                                                                    
                                                                                                    
                                                                                                    
                                                                                                    
                                                                                                    
                                                                                                    
                                                                                                    
                                                                                                    
                                                                                                    
                                                                                                    
                                                                                                    
                                                                                                    
                                                                                                    
                                                                                                    
                                                                                                    
                           
<?xpacket end="w"?></metadata>
<defs>
    <style>
      .cls-1 {
        fill: #1b1b1b;
        fill-rule: evenodd;
      }
    </style>
  </defs>
  <path id="Forma_1" data-name="Forma 1" class="cls-1" d="M94.307,64.115a10.028,10.028,0,0,0,9.087-6.853l10.341-36.171c1.076-3.77-1.25-6.853-5.171-6.853H35.587A14.254,14.254,0,0,0,21.331-.012H-0.053v14.25H21.331V74.8A10.688,10.688,0,0,0,32.024,85.489H99.741a7.126,7.126,0,1,0,0-14.252H35.587V64.115h58.72ZM35.587,28.49h64.467L93.943,49.865H35.587V28.49Zm7.129,76.592a8.937,8.937,0,0,1-8.911,8.909H30.242a8.936,8.936,0,0,1-8.91-8.909v-3.558a8.931,8.931,0,0,1,8.91-8.907h3.564a8.932,8.932,0,0,1,8.911,8.907v3.558Zm64.154,0a8.937,8.937,0,0,1-8.911,8.909H94.4a8.937,8.937,0,0,1-8.91-8.909v-3.558a8.932,8.932,0,0,1,8.91-8.907h3.564a8.932,8.932,0,0,1,8.911,8.907v3.558Z"/>
</svg>
