<?xml version="1.0" encoding="utf-8"?>
<!-- Generator: Adobe Illustrator 21.1.0, SVG Export Plug-In . SVG Version: 6.00 Build 0)  -->
<svg version="1.1" id="Слой_1" xmlns="http://www.w3.org/2000/svg" xmlns:xlink="http://www.w3.org/1999/xlink" x="0px" y="0px"
	 viewBox="0 0 1000 1000" style="enable-background:new 0 0 1000 1000;" xml:space="preserve">
<style type="text/css">
	.st0{fill:#336AB1;}
</style>
<g>
	<g transform="translate(0.000000,511.000000) scale(0.100000,-0.100000)">
		<path class="st0" d="M4743.1,4981.5c-209.5-43.5-403.2-152.2-563.3-312.3c-160.1-162.1-251-320.2-306.3-537.6
			c-71.2-278.7-35.6-583,102.8-843.9c83-158.1,306.3-381.5,464.5-464.5c462.5-243.1,1015.9-162.1,1379.6,201.6
			c296.5,300.4,409.1,705.6,306.4,1106.8c-55.4,217.4-146.3,375.5-306.4,537.6C5537.6,4953.9,5142.3,5068.5,4743.1,4981.5z
			 M5379.5,4633.7c181.8-90.9,330.1-241.1,417-424.9c59.3-126.5,63.3-146.3,63.3-361.7s-4-235.2-63.3-361.7
			c-87-183.8-235.2-334-419-424.9c-144.3-71.2-152.2-73.1-377.5-73.1s-233.2,2-377.5,73.1c-183.8,90.9-332,241.1-419,424.9
			c-59.3,126.5-63.2,146.3-63.2,361.7s4,235.2,63.2,359.7c106.7,225.3,288.6,389.4,529.7,476.3c75.1,25.7,146.3,33.6,298.4,29.6
			C5215.4,4706.8,5241.1,4700.9,5379.5,4633.7z"/>
		<path class="st0" d="M6794.6,3192.9c-100.8-15.8-106.7-17.8-397.3-181.8c-243.1-136.4-628.5-288.6-913.1-361.7
			c-185.8-47.4-256.9-55.3-484.2-55.3c-227.3,0-298.4,7.9-484.2,55.3c-347.9,88.9-695.7,233.2-1043.6,430.9
			c-150.2,87-189.7,100.8-310.3,110.7c-172,11.9-298.4-19.8-426.9-104.8c-253-166-341.9-504-209.5-788.6
			c53.4-112.7,98.8-160.1,515.9-535.6c432.8-389.4,458.5-417,486.2-511.9c45.5-162.1,87-458.5,100.8-713.5l11.9-237.2l-290.5-622.6
			c-158.1-341.9-302.4-675.9-320.2-741.2c-94.9-367.6,154.2-755,543.5-843.9c251-55.4,579.1,69.2,711.5,272.8
			C4387.3-1483.4,4988.1-679,5000-679c15.8,0,592.9-772.8,693.7-928.9c231.3-357.7,741.2-421,1057.4-132.4
			c197.6,179.9,280.7,436.8,219.4,677.9c-17.8,65.2-162.1,397.3-320.2,739.2l-290.5,622.6l11.9,227.3
			c13.8,260.9,57.3,575.1,100.8,723.4c27.7,94.9,53.4,122.5,482.3,509.9c409.1,367.6,460.5,423,517.8,535.6
			c59.3,120.6,61.3,136.4,53.4,300.4c-5.9,114.6-21.7,197.6-43.5,243.1C7346,3101.9,7077.2,3240.3,6794.6,3192.9z M3545.3,2720.5
			c616.7-304.4,1002.1-415.1,1454.7-415.1c280.7,0,525.7,43.5,847.9,150.2c219.4,73.1,677.9,284.6,832.1,383.4
			c154.2,98.8,316.2,96.8,446.7-4c63.3-51.4,126.5-179.9,126.5-262.9c0-138.4-61.3-209.5-519.8-622.6
			c-480.3-430.9-490.2-444.7-553.4-701.6c-61.3-245.1-81-424.9-83-741.2V180.8l296.5-632.5c286.6-612.7,296.5-636.4,296.5-762.9
			c0-110.7-9.9-144.3-59.3-225.3c-162.1-262.9-527.7-257-707.6,7.9c-106.7,160.1-913.1,1245.2-923,1245.2
			c-7.9,0-729.3-972.4-946.7-1274.8c-85-118.6-207.5-172-367.6-162.1c-239.2,15.8-395.3,187.8-381.5,421
			c7.9,102.8,45.5,197.6,280.6,701.6c150.2,320.2,284.6,614.7,300.4,652.2c55.3,144.3,23.7,713.5-61.3,1077.2
			c-59.3,258.9-96.8,308.3-567.2,731.3c-237.2,213.5-444.7,407.2-462.5,434.8c-132.4,203.6,43.5,523.8,286.6,523.8
			C3128.3,2918.1,3274.6,2854.9,3545.3,2720.5z"/>
		<path class="st0" d="M4330,1947.7c-140.3-55.3-262.9-183.8-318.2-330.1c-35.6-94.9-41.5-144.3-35.6-310.3s17.8-215.4,63.2-314.3
			c116.6-239.2,478.3-543.5,814.3-683.9l144.3-59.3l120.6,47.4c357.7,146.3,699.7,426.9,824.2,679.9c69.2,136.4,75.1,168,81,338
			c7.9,215.4-29.6,353.8-132.4,476.3c-183.8,223.3-561.3,258.9-810.3,77.1l-85-61.3l-43.5,41.5
			C4818.2,1975.4,4519.7,2022.8,4330,1947.7z M4739.1,1647.3c41.5-25.7,114.6-108.7,160.1-179.9c47.4-71.2,90.9-130.4,98.8-130.4
			c5.9,0,41.5,45.5,79.1,98.8c142.3,211.5,298.4,300.4,454.6,256.9c199.6-53.4,276.7-340,160.1-583
			c-79.1-162.1-363.7-403.2-610.7-513.9l-85-37.6l-142.3,73.1c-468.4,243.1-683.8,567.2-577.1,869.6
			C4349.8,1702.6,4557.3,1767.8,4739.1,1647.3z"/>
		<path class="st0" d="M1489.8-993.2c-79.1-35.6-148.2-112.7-173.9-189.7c-15.8-57.3-209.5-1695.8-209.5-1784.7
			c2-156.2,49.4-215.4,851.8-1031.7L2733-4790h1004c565.3,0,1006,7.9,1006,17.8s-35.6,334-79.1,723.4
			c-73.1,646.3-83,713.5-132.4,802.4c-45.5,83-148.2,170-768.8,650.3c-395.3,306.3-760.9,575.2-812.3,598.9
			c-126.5,57.3-326.1,59.3-417,3.9c-201.6-120.5-195.7-385.4,15.8-691.7c33.6-49.4,53.4-88.9,45.5-87c-7.9,0-100.8,37.5-203.6,85
			l-187.8,85v610.7v610.7L2148-1268C2023.5-1013,1723.1-888.5,1489.8-993.2z M1798.2-1285.8c130.4-88.9,140.3-150.2,116.6-774.7
			c-11.9-338-11.9-545.5,2-592.9c37.6-142.3,128.5-199.6,652.2-413.1c266.8-108.7,486.2-197.6,488.2-195.7
			c5.9,7.9-110.7,509.9-124.5,533.6c-9.9,11.9-55.3,77.1-102.8,142.3c-94.9,126.5-160.1,255-162.1,312.3c0,37.6,83,47.4,162.1,15.8
			c61.3-23.7,1399.3-1059.4,1440.8-1114.7c23.7-31.6,47.4-172,85-517.8c27.7-260.9,57.3-504,61.3-537.6l11.9-65.2h-790.6h-788.6
			l-719.4,731.3C1737-3359,1406.9-3015.1,1401-2995.3c-11.9,29.6,168,1656.3,189.7,1719.5
			C1602.5-1240.3,1740.8-1246.2,1798.2-1285.8z"/>
		<path class="st0" d="M8148.5-987.3c-118.6-43.5-249-168-304.4-288.6c-47.4-102.8-47.4-114.6-47.4-715.5V-2604l-195.7-85
			c-108.7-47.4-199.6-85-203.6-85c-3.9,0,19.8,39.5,53.4,88.9c152.2,221.3,201.6,452.6,126.5,581.1c-81,136.4-251,185.8-450.6,132.4
			c-114.6-31.6-187.8-83-863.7-604.8c-632.5-488.2-745.1-583-792.6-666.1c-51.4-90.9-59.3-142.3-134.4-804.4
			c-43.5-389.3-79.1-715.4-79.1-725.3s440.8-17.8,1004-17.8h1006l774.8,790.6c800.5,816.3,849.9,877.6,851.8,1029.7
			c0,166-201.6,1768.9-231.2,1832.2c-49.4,104.8-166,170-310.3,175.9C8280.9-959.6,8197.9-969.5,8148.5-987.3z M8409.4-1275.9
			c19.8-61.3,199.6-1689.9,189.7-1719.5c-5.9-19.8-336-363.7-729.3-766.9l-719.4-731.3h-788.6h-790.6l9.9,65.2
			c5.9,33.6,33.6,272.8,61.3,527.7s61.3,484.2,73.1,507.9c21.7,45.4,1336.1,1073.2,1436.9,1124.6c27.7,15.8,81,27.7,118.6,27.7
			c63.2,0,65.2-2,53.4-61.3c-11.9-63.3-104.8-223.3-209.5-363.7c-45.5-61.3-73.1-140.3-118.6-336c-31.6-140.3-55.3-257-53.4-258.9
			c13.8-15.8,990.2,407.1,1033.7,446.7c29.6,27.7,69.2,85,88.9,130.4c33.6,75.1,35.6,116.6,17.8,626.5
			c-17.8,553.4-13.8,618.7,51.4,715.5c15.8,19.8,47.5,49.4,71.2,63.3C8265.1-1246.2,8397.5-1244.3,8409.4-1275.9z"/>
	</g>
</g>
</svg>
