<?xml version="1.0" encoding="utf-8"?>
<!-- Generator: Adobe Illustrator 21.1.0, SVG Export Plug-In . SVG Version: 6.00 Build 0)  -->
<svg version="1.1" id="Capa_1" xmlns="http://www.w3.org/2000/svg" xmlns:xlink="http://www.w3.org/1999/xlink" x="0px" y="0px"
	 viewBox="0 0 480 480" style="enable-background:new 0 0 480 480;" xml:space="preserve">
<style type="text/css">
	.st0{fill:#336AB1;}
</style>
<g>
	<g>
		<path class="st0" d="M480,40c0-10.7-4.2-20.7-11.7-28.3C460.7,4.2,450.7,0,440,0s-20.7,4.2-28.3,11.7l-50.9,50.9l0,0
			c-9.4-9.4-24.6-9.3-33.9,0l-11.3,11.3c-9.4,9.4-9.4,24.6,0,33.9l5.7,5.7l-50.9,50.9L213.7,221c-3.1,3.1-3.1,8.2,0,11.3L191.1,255
			c-4.5,4.5-7,10.6-7,17c0,6.4,2.5,12.4,7,17c4.5,4.5,10.6,7,17,7c6.4,0,12.4-2.5,17-7l22.6-22.6c3.1,3.1,8.2,3.1,11.3,0l56.6-56.6
			l50.9-50.9l5.7,5.7c4.7,4.7,10.8,7,17,7c6.2,0,12.3-2.3,17-7l11.3-11.3c9.4-9.4,9.4-24.6,0-33.9l50.9-50.9
			C475.8,60.7,480,50.7,480,40z M253.3,249.3c-3.1-3.1-8.2-3.1-11.3,0l-28.3,28.3c-3,3-8.3,3-11.3,0c-1.5-1.5-2.3-3.5-2.3-5.6
			c0-2.1,0.8-4.1,2.3-5.7l28.3-28.3c3.1-3.1,3.1-8.2,0-11.3l45.3-45.3l22.6,22.6L253.3,249.3z M309.9,192.7l-22.6-22.6l45.3-45.3
			l22.6,22.6L309.9,192.7z M406.1,141.8l-11.3,11.3c-3.1,3.1-8.2,3.1-11.3,0l-11.3-11.3l-33.9-33.9l-11.3-11.3
			c-3.1-3.1-3.1-8.2,0-11.3l11.3-11.3c3.1-3.1,8.2-3.1,11.3,0l56.6,56.6C409.2,133.6,409.2,138.7,406.1,141.8z M457,57l-50.9,50.9
			l-33.9-33.9L423,23c9.1-9.1,24.9-9.1,33.9,0c4.5,4.5,7,10.6,7,17S461.5,52.4,457,57z"/>
	</g>
</g>
<g>
	<g>
		<path class="st0" d="M280,400H8c-4.4,0-8,3.6-8,8v16c0,10.4,6.7,19.2,16,22.5v9.5c0,13.2,10.8,24,24,24h208c13.2,0,24-10.8,24-24
			v-9.5c9.3-3.3,16-12.1,16-22.5v-16C288,403.6,284.4,400,280,400z M256,456c0,4.4-3.6,8-8,8H40c-4.4,0-8-3.6-8-8v-8h224V456z
			 M272,424c0,4.4-3.6,8-8,8H24c-4.4,0-8-3.6-8-8v-8h256V424z"/>
	</g>
</g>
<g>
	<g>
		<path class="st0" d="M176,320c-17.6,0-32,14.4-32,32s14.4,32,32,32s32-14.4,32-32S193.6,320,176,320z M176,368
			c-8.8,0-16-7.2-16-16s7.2-16,16-16s16,7.2,16,16S184.8,368,176,368z"/>
	</g>
</g>
<g>
	<g>
		<path class="st0" d="M72,208c-13.2,0-24,10.8-24,24s10.8,24,24,24s24-10.8,24-24S85.2,208,72,208z M72,240c-4.4,0-8-3.6-8-8
			s3.6-8,8-8s8,3.6,8,8S76.4,240,72,240z"/>
	</g>
</g>
<g>
	<g>
		<polygon class="st0" points="224,40 224,24 208,24 208,40 192,40 192,56 208,56 208,72 224,72 224,56 240,56 240,40 		"/>
	</g>
</g>
<g>
	<g>
		<rect x="80" y="80" class="st0" width="16" height="16"/>
	</g>
</g>
<g>
	<g>
		<rect x="160" y="144" class="st0" width="16" height="16"/>
	</g>
</g>
<g>
	<g>
		<path class="st0" d="M472,192H360c-4.4,0-8,3.6-8,8v32c0,10.4,6.7,19.2,16,22.5V296v40h-24c-13.2,0-24,10.8-24,24v120h16V360
			c0-4.4,3.6-8,8-8h24v80c0,26.5,21.5,48,48,48s48-21.5,48-48V296v-41.5c9.3-3.3,16-12.1,16-22.5v-32C480,195.6,476.4,192,472,192z
			 M448,432c0,17.6-14.4,32-32,32s-32-14.4-32-32v-80h32v-16h-32v-32h64V432z M448,288h-64v-32h64V288z M464,232c0,4.4-3.6,8-8,8
			h-80c-4.4,0-8-3.6-8-8v-24h96V232z"/>
	</g>
</g>
</svg>
