<?xml version="1.0" encoding="utf-8"?>
<!-- Generator: Adobe Illustrator 21.1.0, SVG Export Plug-In . SVG Version: 6.00 Build 0)  -->
<svg version="1.1" id="Capa_1" xmlns="http://www.w3.org/2000/svg" xmlns:xlink="http://www.w3.org/1999/xlink" x="0px" y="0px"
	 viewBox="0 0 512 512" style="enable-background:new 0 0 512 512;" xml:space="preserve">
<style type="text/css">
	.st0{fill:#336AB1;}
</style>
<g>
	<g>
		<path class="st0" d="M330.7,138.7c-27.8,0-85.3-7.9-85.3-32c0-5.9-4.8-10.7-10.7-10.7c-5.9,0-10.7,4.8-10.7,10.7
			c0,1.3-0.5,32-42.7,32c-5.9,0-10.7,4.8-10.7,10.7v21.3c0.1,47.1,38.2,85.3,85.3,85.3c47.1-0.1,85.3-38.2,85.3-85.3v-21.3
			C341.3,143.4,336.6,138.7,330.7,138.7z M320,170.7c0,35.3-28.7,64-64,64s-64-28.7-64-64v-11.2c17.9-0.9,34.4-10.1,44.6-24.8
			c21,19.5,63,24,83.4,25V170.7z"/>
	</g>
</g>
<g>
	<g>
		<path class="st0" d="M336.2,31.7C314.5,11.3,285.8,0,256,0c-64.8,0-117.3,52.5-117.3,117.3v192H160v-192c0-53,43-96,96-96
			s96,43,96,96v192h21.3v-192C373.3,84.9,359.9,53.9,336.2,31.7z"/>
	</g>
</g>
<g>
	<g>
		<path class="st0" d="M373.7,301.1l-75.1-38.9v-27.5h-21.3v34c0,4,2.2,7.6,5.8,9.5l80.8,41.9c25.2,11.3,41.4,36.4,41.4,64v106.7
			H106.7V384c0-27.6,16.2-52.7,41.4-64l80.8-41.9c3.5-1.8,5.8-5.5,5.8-9.5v-34h-21.3v27.5l-75.1,38.9c-32.4,14.9-53,47.3-52.9,82.9
			v117.3c0,5.9,4.8,10.7,10.7,10.7h320c5.9,0,10.7-4.8,10.7-10.7V384C426.8,348.4,406.1,316,373.7,301.1z"/>
	</g>
</g>
<g>
	<g>
		<path class="st0" d="M389.6,321.3L256,393.2l-133.6-71.9l-10.1,18.8l138.7,74.7c1.6,0.8,3.3,1.3,5.1,1.3l0,0
			c1.8,0,3.5-0.4,5.1-1.3l138.7-74.7L389.6,321.3z"/>
	</g>
</g>
<g>
	<g>
		<path class="st0" d="M160,469.3V416h-21.3v53.3c0,23.6,19.1,42.7,42.7,42.7v-21.3C169.6,490.7,160,481.1,160,469.3z"/>
	</g>
</g>
<g>
	<g>
		<path class="st0" d="M352,416v53.3c0,11.8-9.6,21.3-21.3,21.3V512c23.6,0,42.7-19.1,42.7-42.7V416L352,416L352,416z"/>
	</g>
</g>
<g>
	<g>
		<rect x="245.3" y="352" class="st0" width="21.3" height="53.3"/>
	</g>
</g>
</svg>
